<svg width="80" height="80" viewBox="0 0 80 80" fill="none" xmlns="http://www.w3.org/2000/svg">
<path d="M54.7117 32.2725C54.3285 31.8725 53.7621 31.8257 53.2589 31.6297C52.8681 31.4621 52.6445 31.1269 52.2813 30.9033C51.8529 30.6944 51.3878 30.5711 50.9121 30.5401C47.1621 30.2201 46.9769 30.7001 45.3801 31.4621C39.5561 34.2573 33.7745 29.9141 31.6777 36.5641C32.1805 36.4805 32.7497 36.3681 33.2265 36.3241C36.0585 36.0633 39.4825 36.6005 46.2461 35.7373C46.8861 35.6573 49.1261 35.4437 49.9621 35.3461C51.1985 35.2021 54.7401 34.0053 54.7401 34.0053C55.2409 33.6693 55.0545 32.6293 54.7117 32.2725Z" fill="#E7F0EF"/>
<path d="M75.8047 50.852C75.7825 50.4285 75.6579 50.0167 75.4415 49.652C74.9387 48.9816 73.7655 48.814 73.0111 48.6184C69.8583 47.8512 63.7867 47.1104 63.1763 46.2712C62.9343 45.9488 63.1423 45.5548 63.2323 43.7568C63.2879 42.8908 63.4279 41.9968 63.5123 41.1304C63.5029 40.7013 63.5216 40.272 63.5683 39.8452C63.6239 39.5652 63.8195 39.3144 63.9035 39.0352C64.1374 38.0921 64.0888 37.101 63.7639 36.1852C63.4007 35.2652 62.4595 34.7732 61.6403 34.2852C61.0231 33.9176 61.0999 33.8816 60.9327 33.8716C60.3777 33.8643 59.8231 33.9034 59.2747 33.9884C57.2563 33.2304 58.1575 32.7728 52.1147 34.8164C51.0899 35.1624 51.3275 35.2512 45.3175 35.7892C43.5539 35.932 41.5427 36.3052 38.4247 36.2412C35.3551 36.1784 32.4271 36.1796 29.4839 37.0512V37.0792C31.2719 37.1072 32.6971 38.4204 33.3395 39.1472C36.0495 42.22 36.1895 49.0668 34.2895 52.5868C33.2835 54.4308 31.5235 55.4088 29.2047 55.3528C28.6368 55.3336 28.0815 55.1805 27.5839 54.906L27.5559 54.9616C27.1331 55.3848 27.6271 56.318 27.9559 56.5668C28.4871 56.9668 29.8047 58.1484 30.0127 58.2308C30.4231 58.3932 31.0603 57.826 31.4375 58.2028C31.6891 58.4264 31.7451 58.8452 31.8847 59.1528C32.5023 60.5248 33.8447 59.9348 34.1199 59.9348C34.3999 59.9628 34.6507 60.1304 34.9299 60.1304C35.5819 60.0652 38.0175 59.5704 38.3107 59.5704C38.7859 59.5704 38.9535 59.8504 39.4283 59.766C40.2107 59.6264 41.0207 59.0676 41.8591 59.1792C42.0547 59.2072 41.9431 59.5148 41.9431 59.6264C42.0491 60.4748 43.9735 60.6576 45.2119 60.9956C47.5867 61.61 49.9895 62.0292 52.3643 62.616C55.0747 63.2864 57.7287 64.0408 60.4111 64.656C69.9251 66.7812 68.1191 66.56 70.2735 66.9188C70.4691 66.9468 70.9999 66.8912 71.1679 67.0028C76.3635 61.3596 75.9727 52.0536 75.8047 50.852Z" fill="#CDE0DE"/>
<path d="M30.5716 48.7846C31.0424 49.0982 31.8288 49.4271 32.3876 49.1759C32.2248 49.9154 31.9584 50.6283 31.5964 51.2934C31.5964 51.2934 27.6364 48.2819 27.61 48.1979C27.522 47.9199 28.7556 41.7979 28.7556 41.7979C28.7556 41.7979 29.566 42.3011 30.4316 42.8599C28.9924 44.5891 28.6068 47.4758 30.5716 48.7846Z" fill="#2D3536"/>
<path d="M74.8008 30.9878C73.4312 31.2358 72.6268 33.303 71.476 31.4906C70.836 30.4826 72.392 29.663 73.1244 29.283C73.678 28.9947 74.2886 28.8326 74.9124 28.8086C79.0476 28.9482 78.82 35.3406 76.1696 37.2178C75.4589 37.7149 74.6148 37.9862 73.7476 37.9962C72.8804 38.0062 72.0303 37.7544 71.3084 37.2738C70.8348 36.9646 70.274 36.0498 69.688 35.961C68.9884 35.8546 68.5708 37.721 67.788 37.0506C66.6432 36.0714 68.3752 34.1206 69.4924 34.005C70.2748 33.925 70.7168 34.6802 71.1688 35.1782C72.1912 36.3062 73.5052 36.991 74.8568 35.989C77.4312 34.0802 76.8368 30.619 74.8008 30.9878Z" fill="#2D3536"/>
<path d="M68.6794 17.2133C72.3954 15.3693 75.2274 21.1301 73.7642 24.0309C73.3762 24.8047 72.763 25.4431 72.0054 25.862C71.2478 26.2808 70.3811 26.4606 69.5194 26.3777C68.933 26.3217 68.0394 25.7949 67.4794 25.9865C66.8106 26.2145 67.3106 28.0605 66.3062 27.8585C64.8234 27.5605 65.4302 24.9945 66.3622 24.3661C66.9982 23.9369 67.7622 24.3853 68.4022 24.5893C69.8334 25.0453 71.2954 25.0997 72.0346 23.5557C72.4369 22.7028 72.5639 21.7459 72.3978 20.8177C72.1798 19.6153 70.8906 18.1653 69.6318 19.1693C68.5434 20.0369 68.797 22.2369 66.9494 21.1809C65.9174 20.5909 66.881 19.1329 67.3406 18.4709C67.6897 17.959 68.1467 17.5297 68.6794 17.2133Z" fill="#2D3536"/>
<path d="M66.6972 37.5811C67.9544 37.3299 67.8996 39.4059 66.6972 39.5651C66.4791 39.5882 66.2606 39.5251 66.0884 39.3893C65.9161 39.2535 65.8037 39.0558 65.7752 38.8383C65.7752 38.0399 66.1728 37.6427 66.6972 37.5811Z" fill="#2D3536"/>
<path d="M65.6072 28.8083C66.6128 27.9983 67.5056 29.8679 66.5292 30.5403C66.4395 30.6012 66.3386 30.6437 66.2323 30.6655C66.1261 30.6873 66.0166 30.6878 65.9101 30.6671C65.8036 30.6464 65.7023 30.6049 65.612 30.5449C65.5216 30.4849 65.444 30.4076 65.3836 30.3175C65.2136 30.0876 65.1416 29.7997 65.1835 29.5169C65.2255 29.234 65.3778 28.9793 65.6072 28.8087V28.8083Z" fill="#2D3536"/>
<path d="M33.3092 39.1454C30.7308 36.2306 27.2248 36.2674 24.9276 40.4026C23.3432 43.255 23.1804 47.6054 24.8156 51.2426C25.7636 53.309 26.9356 55.3094 29.1756 55.3498C31.4956 55.3898 33.2556 54.4558 34.2604 52.5838C36.16 49.0638 36.0196 42.2186 33.3092 39.1454ZM31.6608 51.271C31.6608 51.271 27.6936 48.311 27.6656 48.1978C27.5536 47.9178 28.8656 42.051 28.8112 41.7998C28.8672 41.7998 31.2592 43.3694 32.6172 44.243C32.84 46.6678 32.7316 49.033 31.6608 51.271Z" fill="white"/>
<path d="M30.9631 71.3601C30.9737 71.4971 30.9505 71.6345 30.8956 71.7605C30.8407 71.8864 30.7558 71.9969 30.6483 72.0824C30.5407 72.1679 30.4138 72.2257 30.2788 72.2507C30.1437 72.2758 30.0045 72.2673 29.8735 72.2261C29.6428 72.1945 29.4294 72.0866 29.2673 71.9194C29.1053 71.7523 29.0039 71.5356 28.9795 71.3041C28.7555 70.0473 30.8695 70.1573 30.9631 71.3601Z" fill="#2D3536"/>
<path d="M28.8674 61.8601C29.3457 62.5842 29.5936 63.4361 29.5787 64.3038C29.5638 65.1715 29.2867 66.0144 28.7838 66.7217C28.4474 67.1961 27.5266 67.7273 27.4146 68.2861C27.275 68.9845 29.1486 69.4329 28.4486 70.2141C27.445 71.3341 25.5406 69.5717 25.459 68.4541C25.4018 67.6721 26.179 67.2445 26.659 66.8057C27.787 65.7805 28.4946 64.5481 27.579 63.1457C27.0451 62.3617 26.2702 61.7732 25.3718 61.4693C24.2214 61.0933 22.3222 61.4693 22.5778 63.0617C22.7978 64.4317 24.8394 65.2945 22.997 66.3865C21.9626 67.0001 21.197 65.4145 20.8178 64.6825C20.5375 64.1282 20.3945 63.5147 20.4006 62.8937C20.6806 58.7593 27.0806 59.1505 28.8674 61.8601Z" fill="#2D3536"/>
<path d="M70.8314 57.6417L70.6082 58.7033L59.125 56.1609L59.4042 54.9873L70.8314 57.6417Z" fill="white"/>
<path d="M20.84 8.80792L22.3 55.9655L27.4688 55.9095C27.4044 55.7575 27.376 55.5927 27.3857 55.428C27.3955 55.2632 27.443 55.1029 27.5248 54.9595L27.5524 54.9039H27.5244C26.4072 54.2611 25.5684 52.9479 24.8144 51.2435C23.4456 48.1983 23.222 44.2867 24.5344 41.2135C24.4484 41.1703 24.538 43.5467 23.724 11.2623L57.364 10.7023C58.3004 34.5735 58.2736 33.4699 58.2304 33.5567C58.4256 33.6407 58.6212 33.7243 58.7904 33.8079L59.4608 34.0595L59.4888 34.0035C59.9229 33.8921 60.371 33.8449 60.8188 33.8635L59.5448 7.74072L20.84 8.80792Z" fill="#E7F0EF"/>
<path d="M48.0885 37.5259C47.7461 37.7963 47.0825 37.7435 46.6917 37.7771C45.8517 37.8491 45.0153 38.0571 44.1769 38.0571C43.4229 38.0571 43.1713 37.5539 42.7521 36.9951C42.6685 36.8831 42.2773 36.0731 42.2773 36.0731C44.9937 35.8999 45.4657 35.7047 47.6137 35.5703C48.0089 36.1575 48.6433 37.0871 48.0885 37.5259Z" fill="white"/>
<path d="M40.378 37.7768C40.4928 37.9708 40.8808 38.6432 40.4896 38.7828C40.0984 38.9224 39.5956 38.7828 39.1768 38.7828C37.366 38.7828 36.2748 39.1852 35.796 38.7548C35.5778 38.5018 35.3815 38.2306 35.2092 37.9444C34.6573 37.2787 33.9719 36.7362 33.1972 36.352C34.6236 36.162 37.5228 36.24 38.4224 36.24C39.2267 36.5211 39.9147 37.0618 40.378 37.7768Z" fill="white"/>
<path d="M27.4692 55.9512H22.2724L22.0484 47.8628L10.482 49.6228L5.06156 15.3132L20.9308 12.5932L20.8508 9.97559L2.10156 13.1356L9.81116 59.96C29.2512 56.2284 27.8464 56.5096 27.8884 56.4676C27.7038 56.3375 27.5587 56.1585 27.4692 55.9512Z" fill="#E7F0EF"/>
<path d="M57.3646 10.7036C58.3346 34.7164 58.3022 33.4992 58.2586 33.586C58.0325 33.4668 57.7862 33.3908 57.5322 33.362C56.5138 33.2732 54.9506 34.0052 54.7106 34.0052V33.9772C55.2134 33.642 55.0394 32.6144 54.6826 32.2448C54.2826 31.8324 53.703 31.8008 53.2298 31.6024C52.505 31.298 52.5898 30.6576 50.8826 30.5124C49.1874 30.3684 48.7142 30.2868 47.3066 30.5684C46.6201 30.8177 45.9564 31.1255 45.3226 31.4884C42.1086 33.0284 39.0794 32.3656 35.935 32.6884C35.183 32.7228 34.4535 32.9556 33.8206 33.363C33.1876 33.7705 32.6737 34.3382 32.331 35.0084C32.0152 35.4663 31.814 35.9934 31.7442 36.5452C30.959 36.6656 30.1836 36.843 29.4242 37.076V37.104C29.0065 37.1016 28.5913 37.1677 28.195 37.2996C26.6954 37.8032 26.0158 38.3892 24.8982 40.4008C24.7509 40.6625 24.6203 40.9331 24.507 41.2112C24.421 41.168 24.507 43.5448 23.7246 11.26L57.3646 10.7036Z" fill="white"/>
<path d="M32.3609 49.1757C31.7745 49.4269 31.0157 49.0981 30.5449 48.7845C29.0229 47.7705 28.9325 45.8541 29.5949 44.2861C29.7699 43.7566 30.0563 43.2708 30.4349 42.8613C31.133 43.3145 31.8409 43.7523 32.5581 44.1745C32.7461 44.8725 32.8409 47.0753 32.3609 49.1757Z" fill="#CDE0DE"/>
<path d="M20.9596 12.5889L5.06239 15.3137L10.4828 49.6233L22.0496 47.8633L20.9596 12.5889Z" fill="white"/>
<path d="M33.1948 59.4637C33.8032 58.4901 34.0184 57.0553 33.1888 56.4329C32.7468 55.9989 31.864 56.4705 31.7756 57.5741C31.7735 57.6004 31.7663 57.6259 31.7543 57.6494C31.7423 57.6729 31.7258 57.6937 31.7057 57.7108C31.6857 57.7279 31.6625 57.7409 31.6374 57.749C31.6123 57.7571 31.5859 57.7602 31.5596 57.7581C31.5334 57.756 31.5078 57.7487 31.4843 57.7367C31.4609 57.7247 31.44 57.7083 31.4229 57.6882C31.4058 57.6681 31.3928 57.6449 31.3847 57.6198C31.3766 57.5948 31.3735 57.5684 31.3756 57.5421C31.4956 56.0577 32.8004 55.4833 33.4488 56.1317C34.4336 56.8665 34.2556 58.5193 33.5328 59.6761C33.5032 59.7175 33.4589 59.7461 33.4089 59.7558C33.3589 59.7656 33.307 59.7558 33.264 59.7285C33.2211 59.7013 33.19 59.6589 33.1772 59.6097C33.1643 59.5606 33.1707 59.5084 33.1948 59.4637Z" fill="#2D3536"/>
<path d="M38.1312 59.4001C38.0028 59.4257 35.2848 59.9157 34.9016 59.9549C34.5688 59.9549 34.1352 59.5925 33.5528 59.8257C33.2512 59.9003 32.9328 59.8647 32.6551 59.7253C32.3774 59.586 32.1586 59.3521 32.038 59.0657C31.9024 58.7673 31.838 58.3137 31.5504 58.0573C31.0892 57.5965 30.4488 58.2093 30.1136 58.0689C29.9136 57.9769 28.1072 56.3973 27.9768 56.3037C27.8204 56.1949 27.7082 56.0335 27.6608 55.8489C27.6106 55.7302 27.5852 55.6024 27.5862 55.4735C27.5872 55.3446 27.6147 55.2172 27.6668 55.0993C27.7023 55.0556 27.724 55.0024 27.7292 54.9463C27.7344 54.8903 27.7228 54.834 27.696 54.7845C27.6782 54.7516 27.654 54.7227 27.6248 54.6993C26.6648 54.1481 25.8316 53.0145 24.9976 51.1309C23.3844 47.5417 23.5688 43.2277 25.102 40.4693C26.1876 38.5149 26.812 37.9249 28.284 37.4613C28.3325 37.4437 28.3724 37.4081 28.3952 37.3619C28.4181 37.3157 28.4222 37.2624 28.4067 37.2132C28.3912 37.164 28.3573 37.1227 28.3121 37.0979C28.2669 37.0731 28.2138 37.0667 28.164 37.0801C26.5884 37.5761 25.8868 38.2329 24.7524 40.2749C23.1376 43.1793 22.9896 47.6389 24.6324 51.2937C25.4724 53.1937 26.2964 54.3337 27.2824 54.9597C27.1797 55.2635 27.1718 55.5913 27.2598 55.8997C27.3478 56.2081 27.5276 56.4823 27.7752 56.6861C28.2192 56.9909 29.6896 58.3297 29.9632 58.4381C30.4872 58.6457 31.0368 58.1101 31.276 58.3469C31.476 58.5237 31.5344 58.9229 31.6736 59.2297C31.8335 59.6097 32.1268 59.918 32.4983 60.0966C32.8698 60.2752 33.2938 60.3117 33.6904 60.1993C34.126 60.0253 34.4504 60.3525 34.9216 60.3525C35.3504 60.3093 38.0912 59.8145 38.2096 59.7905C38.2572 59.7761 38.2978 59.7445 38.3234 59.7018C38.3489 59.6591 38.3577 59.6084 38.3479 59.5597C38.3381 59.5109 38.3105 59.4675 38.2704 59.438C38.2303 59.4085 38.1807 59.395 38.1312 59.4001Z" fill="#2D3536"/>
<path d="M42.7252 59.3224C42.6962 59.3224 42.6676 59.3163 42.6412 59.3044C42.6019 59.2856 42.5697 59.2547 42.5492 59.2163C42.5288 59.1778 42.5212 59.1339 42.5276 59.0908C43.222 54.724 44.4256 49.8536 44.9364 47.392C45.1832 46.2052 45.5432 44.37 46.3556 43.5584C46.4408 43.4728 46.5624 43.3792 46.6356 43.3068C46.7324 43.2328 46.8508 43.1924 46.9728 43.1924C47.4016 43.1924 50.194 43.774 50.6212 43.862C57.484 45.2984 60.2156 45.5152 62.0868 46.05C62.113 46.0563 62.1376 46.0679 62.1591 46.0841C62.1806 46.1002 62.1986 46.1206 62.212 46.144C62.2258 46.1671 62.2347 46.1928 62.238 46.2195C62.2414 46.2462 62.2392 46.2734 62.2316 46.2992C62.2241 46.325 62.2115 46.349 62.1946 46.3699C62.1777 46.3907 62.1568 46.408 62.1332 46.4208C62.1095 46.4335 62.0834 46.4413 62.0566 46.4436C62.0298 46.4459 62.0028 46.4428 61.9772 46.4344C60.0904 45.8952 57.624 45.7364 50.5636 44.2588C50.1948 44.1828 47.3552 43.5924 46.9728 43.5924C46.9012 43.5924 46.8844 43.6256 46.7672 43.7256C45.7868 44.5692 45.5592 46.4856 44.782 49.9596C44.1088 52.9672 43.4128 56.0768 42.9232 59.1536C42.9158 59.2007 42.8917 59.2436 42.8554 59.2746C42.8191 59.3055 42.7729 59.3225 42.7252 59.3224Z" fill="#2D3536"/>
<path d="M39.5128 59.2946C39.4737 59.2948 39.4355 59.2836 39.4027 59.2623C39.37 59.2409 39.3443 59.2104 39.3288 59.1746C38.9404 58.2682 39.0524 57.0426 39.14 56.0578C39.4009 53.0274 40.0546 50.0437 41.0848 47.1818C41.614 45.6172 42.2742 44.0999 43.0584 42.6462C43.3652 42.2282 43.398 42.0118 43.6148 42.0726C43.6429 42.0809 43.669 42.0951 43.6913 42.1142C43.7136 42.1333 43.7315 42.157 43.744 42.1835C43.7564 42.2101 43.763 42.2391 43.7635 42.2684C43.7639 42.2978 43.7581 42.3269 43.7464 42.3538C43.731 42.3898 43.706 42.4208 43.674 42.4434C43.6528 42.4846 43.626 42.523 43.594 42.5574C42.8048 43.7446 41.888 46.0682 41.4624 47.3142C40.4432 50.1448 39.7965 53.096 39.5388 56.0934C39.4552 57.0338 39.3484 58.2034 39.6988 59.017C39.7118 59.0475 39.717 59.0807 39.7138 59.1137C39.7107 59.1467 39.6993 59.1783 39.6808 59.2058C39.6623 59.2333 39.6373 59.2558 39.608 59.2713C39.5786 59.2868 39.5459 59.2948 39.5128 59.2946Z" fill="#2D3536"/>
<path d="M45.7727 41.3224C49.8527 40.7916 58.8731 39.976 62.7659 39.5896C62.8185 39.5851 62.8708 39.6013 62.9117 39.6348C62.9526 39.6682 62.9787 39.7163 62.9847 39.7688C62.9899 39.8216 62.974 39.8743 62.9404 39.9153C62.9068 39.9563 62.8583 39.9824 62.8055 39.9876C58.8507 40.38 49.8915 41.19 45.8243 41.7188C45.7727 41.7233 45.7214 41.7078 45.681 41.6754C45.6406 41.6431 45.6141 41.5965 45.6071 41.5452C45.6005 41.4939 45.6141 41.4419 45.645 41.4004C45.6758 41.3588 45.7216 41.3309 45.7727 41.3224Z" fill="#2D3536"/>
<path d="M53.4333 37.0229C54.9881 36.6417 56.7933 36.3325 59.8585 35.7801C59.9308 35.7605 60.0059 35.7538 60.0805 35.7601C60.1336 35.7601 60.1844 35.7812 60.2219 35.8187C60.2594 35.8562 60.2805 35.9071 60.2805 35.9601C60.2805 36.0132 60.2594 36.064 60.2219 36.1016C60.1844 36.1391 60.1336 36.1601 60.0805 36.1601C60.0405 36.1601 55.4805 36.9329 53.5285 37.4121C53.4901 37.4213 53.4498 37.4189 53.4128 37.4052C53.3757 37.3916 53.3435 37.3674 53.3201 37.3355C53.2968 37.3037 53.2833 37.2656 53.2815 37.2262C53.2796 37.1867 53.2894 37.1476 53.3097 37.1137C53.3372 37.0683 53.3817 37.0356 53.4333 37.0229Z" fill="#2D3536"/>
<path d="M61.7357 36.1506C61.6349 35.937 61.4081 35.7674 61.3473 35.6254C61.1773 35.2574 61.1829 34.8654 60.8185 34.5498C60.2469 34.0526 59.7237 33.9138 58.9293 33.617C58.7505 33.5465 58.5755 33.4664 58.4053 33.377C57.4417 32.897 56.6149 33.1854 55.4665 33.557C54.9517 33.723 52.6925 34.3514 51.1985 34.8874C51.0889 34.8982 50.9801 34.9194 50.8749 34.9518C50.5621 35.0026 49.9405 35.117 48.4093 35.2606C45.5593 35.527 44.6369 35.723 42.3173 35.871C36.9081 36.3318 34.0373 35.511 29.3973 36.8842C29.3721 36.8916 29.3486 36.904 29.3282 36.9205C29.3077 36.9371 29.2908 36.9575 29.2782 36.9806C29.2656 37.0037 29.2578 37.029 29.255 37.0552C29.2523 37.0813 29.2547 37.1078 29.2621 37.133C29.2696 37.1582 29.2819 37.1817 29.2985 37.2021C29.315 37.2226 29.3354 37.2395 29.3585 37.2521C29.3816 37.2646 29.407 37.2725 29.4331 37.2753C29.4593 37.278 29.4857 37.2756 29.5109 37.2682C33.5009 36.0854 36.5345 36.5326 40.0309 36.4098C41.1753 37.8022 42.1305 39.665 42.2509 41.4722C42.2545 41.5252 42.279 41.5747 42.319 41.6097C42.359 41.6447 42.4113 41.6623 42.4643 41.6588C42.5174 41.6552 42.5668 41.6307 42.6018 41.5907C42.6368 41.5507 42.6545 41.4984 42.6509 41.4454C42.5005 39.1906 41.1793 37.2306 40.5273 36.3898C40.7129 36.381 40.8981 36.3714 41.0841 36.3606C41.5925 36.9798 43.1145 39.0186 43.2717 41.3834C43.2752 41.4364 43.2997 41.4859 43.3396 41.5209C43.3796 41.556 43.4319 41.5737 43.4849 41.5702C43.538 41.5667 43.5875 41.5422 43.6225 41.5023C43.6575 41.4623 43.6752 41.41 43.6717 41.357C43.5233 39.1262 42.2297 37.1858 41.5705 36.3298C43.3549 36.2066 44.5345 36.103 46.3081 35.8766C47.5881 35.7166 49.7457 35.5742 50.9121 35.3486C51.0024 35.3358 51.0915 35.3157 51.1785 35.2886C51.2585 35.3054 51.2469 35.2886 51.7321 35.1286C54.1653 34.3158 54.5273 34.2806 55.5901 33.9378C57.1417 33.4366 57.5313 33.3754 58.4365 33.8362C59.1505 34.1994 59.8645 34.2482 60.5565 34.8498C60.7053 35.0022 60.8057 35.1954 60.8449 35.4046C60.8961 35.6657 61.021 35.9067 61.2049 36.099C61.2717 36.1642 61.3289 36.2386 61.3741 36.3198C61.4454 36.5509 61.4634 36.7952 61.4266 37.0343C61.3899 37.2734 61.2995 37.5011 61.1621 37.7002C61.135 37.7457 61.127 37.8002 61.1398 37.8516C61.1526 37.9031 61.1852 37.9474 61.2305 37.975C61.2531 37.9885 61.2781 37.9975 61.3041 38.0014C61.3301 38.0053 61.3567 38.004 61.3822 37.9976C61.4077 37.9912 61.4318 37.9798 61.4529 37.9642C61.474 37.9485 61.4918 37.9288 61.5053 37.9062C61.6782 37.6519 61.7891 37.3606 61.8291 37.0557C61.8691 36.7509 61.8371 36.4409 61.7357 36.1506Z" fill="#2D3536"/>
<path d="M71.0358 50.2928C67.7414 49.4968 50.709 45.48 48.2934 44.9008C48.2422 44.8882 48.198 44.856 48.1703 44.8111C48.1427 44.7661 48.1339 44.7121 48.1458 44.6608C48.1585 44.6096 48.1908 44.5655 48.2356 44.5378C48.2805 44.5102 48.3344 44.5012 48.3858 44.5128C50.8006 45.092 67.8334 49.1088 71.129 49.9056C71.1762 49.9215 71.2157 49.9547 71.2397 49.9983C71.2637 50.042 71.2705 50.0931 71.2586 50.1416C71.247 50.19 71.2177 50.2323 71.1765 50.2603C71.1353 50.2882 71.0851 50.2998 71.0358 50.2928Z" fill="#2D3536"/>
<path d="M70.1912 65.603C72.3016 62.5186 73.6232 60.4314 74.1816 56.551C74.3892 55.2014 73.8916 51.6262 73.7912 51.0246C73.7168 50.6534 74.4084 50.3046 74.7836 50.083C74.8187 50.0414 74.8686 50.0152 74.9228 50.0098C74.9769 50.0044 75.031 50.0204 75.0736 50.0542C75.1016 50.0766 75.124 50.1058 75.1376 50.139C75.1996 50.305 75.072 50.379 74.8952 50.4802C74.3504 50.7934 74.2076 50.9314 74.1836 50.9918C74.1924 50.9982 74.8176 55.049 74.5772 56.6102C74.0068 60.5758 72.6644 62.697 70.5216 65.8286C70.4992 65.8612 70.4677 65.8864 70.431 65.9012C70.3944 65.9159 70.3541 65.9194 70.3154 65.9113C70.2768 65.9033 70.2413 65.8839 70.2136 65.8557C70.1859 65.8276 70.1671 65.7918 70.1596 65.753C70.1499 65.7008 70.1613 65.6469 70.1912 65.603Z" fill="#2D3536"/>
<path d="M32.8658 45.0399C32.8608 44.7315 32.8322 44.4239 32.7802 44.1199C32.489 42.2827 31.8906 40.9079 30.8282 40.1015C29.8894 39.3895 28.3482 39.0855 26.4726 41.5095C26.4498 41.5408 26.4366 41.5781 26.4347 41.6167C26.4327 41.6554 26.4421 41.6938 26.4616 41.7273C26.4811 41.7607 26.51 41.7877 26.5446 41.805C26.5792 41.8223 26.6182 41.8292 26.6566 41.8247C26.7081 41.8192 26.7554 41.7939 26.7886 41.7543C28.1382 40.0123 29.4326 39.5455 30.5862 40.4203C31.4914 41.1063 32.0662 42.2659 32.3314 43.8307L28.8914 41.6307C28.8638 41.6129 28.8322 41.6023 28.7994 41.5997C28.7666 41.5971 28.7337 41.6027 28.7036 41.6159C28.6735 41.6291 28.6471 41.6496 28.6269 41.6755C28.6066 41.7014 28.5931 41.7319 28.5874 41.7643L27.4414 48.1643C27.4348 48.2006 27.4385 48.238 27.4519 48.2723C27.4653 48.3066 27.488 48.3365 27.5174 48.3587C27.5462 48.3807 30.3026 50.4787 31.319 51.2935C31.0456 51.7572 30.6937 52.1698 30.279 52.5131C29.1558 53.4055 27.9154 52.8543 27.1922 52.1095C26.2366 51.1535 25.645 49.6339 25.4322 47.5923C25.4296 47.566 25.4218 47.5406 25.4094 47.5173C25.3969 47.494 25.38 47.4735 25.3595 47.4567C25.3391 47.44 25.3156 47.4275 25.2903 47.4199C25.265 47.4123 25.2385 47.4097 25.2122 47.4123C25.186 47.4149 25.1605 47.4227 25.1372 47.4352C25.114 47.4477 25.0934 47.4646 25.0767 47.485C25.06 47.5055 25.0474 47.529 25.0398 47.5542C25.0322 47.5795 25.0296 47.606 25.0322 47.6323C25.2566 49.7983 25.8694 51.3547 26.9042 52.3891C27.1714 52.6851 27.4955 52.9242 27.8571 53.0921C28.2188 53.26 28.6105 53.3532 29.009 53.3663C30.929 53.3663 32.121 51.0587 32.551 49.1931C32.8682 47.8331 32.9746 46.4323 32.8658 45.0399ZM31.5138 50.9359C30.5674 50.1819 28.3466 48.4867 27.855 48.1119L28.9262 42.1283L32.4142 44.3571C32.4478 44.5887 32.4654 44.8223 32.4662 45.0563C32.6158 46.8907 32.353 49.3027 31.5142 50.9371L31.5138 50.9359Z" fill="#2D3536"/>
<path d="M30.7107 47.6716C30.6735 47.6717 30.637 47.6613 30.6054 47.6417C30.5737 47.6222 30.5481 47.5941 30.5315 47.5608C30.2936 47.0561 30.1658 46.5066 30.1568 45.9487C30.1477 45.3908 30.2576 44.8373 30.4791 44.3252C30.6391 44.068 30.9103 44.1684 30.9103 44.37C30.9104 44.404 30.9019 44.4375 30.8854 44.4672C30.869 44.497 30.8452 44.522 30.8163 44.54C30.6354 44.994 30.5486 45.48 30.5611 45.9685C30.5736 46.457 30.6852 46.9379 30.8891 47.382C30.9044 47.4125 30.9116 47.4463 30.9101 47.4804C30.9086 47.5144 30.8985 47.5475 30.8806 47.5765C30.8627 47.6055 30.8377 47.6295 30.808 47.6461C30.7783 47.6628 30.7448 47.6716 30.7107 47.6716Z" fill="white"/>
<path d="M31.4923 48.37C31.3799 48.37 31.3451 48.2956 31.2803 48.2448C31.2478 48.2323 31.2191 48.2115 31.197 48.1845C31.175 48.1574 31.1605 48.1251 31.1549 48.0907C31.1493 48.0563 31.1529 48.021 31.1652 47.9884C31.1775 47.9557 31.1982 47.9269 31.2251 47.9048C31.2611 47.8749 31.3064 47.8585 31.3531 47.8584C31.4471 47.8584 31.5183 47.9132 31.6327 48.0284C31.6607 48.0563 31.6798 48.0919 31.6876 48.1306C31.6954 48.1693 31.6915 48.2095 31.6765 48.246C31.6615 48.2826 31.636 48.3138 31.6032 48.3359C31.5704 48.358 31.5319 48.3698 31.4923 48.37Z" fill="white"/>
<path d="M52.3537 32.102C51.4389 31.9766 50.5171 31.9088 49.5937 31.8992C49.0521 31.5183 48.4862 31.1732 47.8997 30.866C47.8764 30.8539 47.8509 30.8466 47.8247 30.8444C47.7985 30.8423 47.7722 30.8453 47.7472 30.8533C47.7222 30.8613 47.699 30.8741 47.6789 30.8911C47.6589 30.9081 47.6424 30.9288 47.6303 30.9522C47.6183 30.9755 47.611 31.001 47.6088 31.0272C47.6066 31.0533 47.6096 31.0797 47.6176 31.1047C47.6256 31.1297 47.6385 31.1529 47.6555 31.173C47.6724 31.193 47.6932 31.2095 47.7165 31.2216C48.1419 31.4457 48.557 31.6888 48.9605 31.9504C47.7681 32.1316 46.7765 32.8816 45.6773 33.2304C41.3789 34.6632 36.6885 32.7944 34.4657 35.2212C34.2613 35.4712 34.0997 35.6688 34.2557 35.8244C34.2816 35.8502 34.3141 35.8685 34.3496 35.8772C34.3852 35.8859 34.4224 35.8847 34.4573 35.8737C34.4922 35.8626 34.5235 35.8423 34.5476 35.8147C34.5717 35.7872 34.5878 35.7536 34.5941 35.7176C34.6481 35.6364 34.7061 35.5576 34.7681 35.4828C36.8021 33.2628 41.4825 35.0508 45.8005 33.6108C47.0405 33.2188 48.1933 32.3092 49.4681 32.3064C50.4209 32.3022 51.3728 32.3674 52.3161 32.5016C52.3692 32.5065 52.422 32.4903 52.4631 32.4563C52.5041 32.4223 52.5299 32.3734 52.5349 32.3204C52.5399 32.2673 52.5236 32.2145 52.4896 32.1734C52.4557 32.1324 52.4068 32.1069 52.3537 32.102Z" fill="#2D3536"/>
<path d="M27.8231 56.3275L9.9755 59.7275L2.3299 13.2983L20.6847 10.2071L22.1007 55.9715C22.1017 55.9965 22.1077 56.0211 22.1184 56.0438C22.129 56.0665 22.1441 56.0868 22.1628 56.1036C22.1814 56.1204 22.2032 56.1333 22.2269 56.1415C22.2506 56.1497 22.2757 56.1531 22.3007 56.1515H27.4707C27.5252 56.1478 27.5762 56.1235 27.6133 56.0835C27.6505 56.0435 27.671 55.9909 27.6707 55.9363C27.672 55.9103 27.6676 55.8844 27.6578 55.8603C27.6481 55.8362 27.6332 55.8145 27.6143 55.7967C27.5953 55.7788 27.5725 55.7654 27.5477 55.7574C27.5229 55.7495 27.4965 55.7472 27.4707 55.7507H22.4947L21.0755 9.91467C21.0743 9.87388 21.0606 9.83444 21.0363 9.80165C21.012 9.76886 20.9783 9.74429 20.9396 9.73122C20.9009 9.71816 20.8592 9.71724 20.82 9.72858C20.7808 9.73992 20.746 9.76298 20.7203 9.79467L2.0671 12.9367C2.01488 12.9455 1.96829 12.9746 1.93755 13.0178C1.90681 13.0609 1.89442 13.1144 1.9031 13.1667L9.6143 59.9931C9.62198 60.0398 9.64602 60.0824 9.68214 60.1131C9.71825 60.1438 9.7641 60.1606 9.8115 60.1607C9.8515 60.1607 9.0515 60.3147 27.8979 56.7207C27.9499 56.7104 27.9957 56.6801 28.0255 56.6363C28.0553 56.5925 28.0666 56.5388 28.0571 56.4867C28.0523 56.4608 28.0425 56.4361 28.0281 56.414C28.0138 56.3919 27.9951 56.373 27.9734 56.3581C27.9516 56.3433 27.9271 56.333 27.9013 56.3277C27.8755 56.3225 27.8489 56.3224 27.8231 56.3275Z" fill="#2D3536"/>
<path d="M34.2305 59.6857C34.1954 59.6855 34.1609 59.676 34.1306 59.6583C34.1002 59.6405 34.0751 59.6152 34.0577 59.5846C34.0403 59.5541 34.0312 59.5196 34.0313 59.4844C34.0315 59.4493 34.0408 59.4148 34.0585 59.3845C34.7625 58.1845 34.5125 56.7193 34.0257 56.2245C33.9859 56.2038 33.9542 56.1704 33.9357 56.1296C33.9172 56.0887 33.913 56.0428 33.9238 55.9993C33.9346 55.9558 33.9597 55.9172 33.9951 55.8897C34.0305 55.8622 34.0741 55.8474 34.1189 55.8477C34.2313 55.8477 34.2989 55.9277 34.3769 56.0189C34.3849 56.0265 34.4149 56.0621 34.4213 56.0709C34.9813 56.8565 35.1297 58.3453 34.4033 59.5853C34.3858 59.6157 34.3607 59.641 34.3303 59.6586C34.3 59.6762 34.2656 59.6855 34.2305 59.6857Z" fill="#2D3536"/>
</svg>
